<svg id="Capa_1" enable-background="new 0 0 492 492" height="512" viewBox="0 0 492 492" width="512" xmlns="http://www.w3.org/2000/svg"><path d="m65.9 240.246 25.41-30.1c2.138-2.532 1.818-6.318-.713-8.456-2.532-2.138-6.318-1.818-8.456.714l-25.411 30.098c-2.138 2.532-1.818 6.318.713 8.456 2.532 2.138 6.318 1.818 8.456-.714z"/><path d="m123.363 203.586c-2.532-2.138-6.317-1.818-8.455.714l-50.818 60.19c-2.138 2.532-1.818 6.318.713 8.456 2.532 2.138 6.318 1.818 8.456-.714l50.818-60.19c2.138-2.532 1.819-6.317-.714-8.456z"/><path d="m308.994 238.932 25.409-30.1c2.168-2.506 1.895-6.295-.611-8.463s-6.295-1.895-8.463.611c-.032.037-.064.075-.095.112l-25.409 30.1c-2.154 2.518-1.86 6.305.658 8.46 2.518 2.154 6.305 1.86 8.46-.658.017-.021.034-.041.051-.062z"/><path d="m366.458 202.273c-2.532-2.138-6.317-1.819-8.455.712 0 0 0 .001-.001.001l-50.818 60.192c-2.138 2.532-1.818 6.318.714 8.456s6.318 1.818 8.456-.714l50.818-60.191c2.137-2.532 1.818-6.317-.714-8.456z"/><path d="m486 223.443h-20.472c-2.531-30.329-27.865-53.669-58.3-53.71h-322.076c-30.435.042-55.768 23.381-58.3 53.71h-20.852c-3.314 0-6 2.686-6 6s2.686 6 6 6h20.636v28.309c-.001 32.316 26.197 58.514 58.513 58.515h.043c1.374 0 2.75-.049 4.129-.148l54.387-3.885c44.363-3.168 78.735-40.082 78.735-84.558v-12.556h47.492v12.556c0 44.475 34.372 81.389 78.734 84.558l54.388 3.885c1.378.099 2.754.148 4.128.148 32.317.023 58.534-26.156 58.557-58.473 0-.014 0-.028 0-.042v-28.309h20.258c3.314 0 6-2.686 6-6s-2.686-6-6-6zm-201.384-41.71c-7.817 7.177-12.868 16.869-14.273 27.387h-48.309c-1.404-10.518-6.455-20.21-14.272-27.387zm-74.173 51.943c-.125 38.131-29.564 69.748-67.589 72.59l-54.388 3.884c-25.625 1.83-47.882-17.459-49.712-43.084-.079-1.104-.118-2.21-.118-3.316v-35.5c.029-25.678 20.838-46.487 46.516-46.516h91.9c18.43.021 33.365 14.957 33.387 33.387zm243.3 30.076c0 25.691-20.827 46.518-46.518 46.518-1.105 0-2.211-.039-3.313-.118l-54.387-3.884c-38.025-2.842-67.464-34.459-67.589-72.59v-18.558c.021-18.43 14.957-33.366 33.387-33.387h91.9c25.678.029 46.487 20.838 46.516 46.516z"/></svg>